<?xml version="1.0" encoding="UTF-8" standalone="no"?>
<!DOCTYPE svg PUBLIC "-//W3C//DTD SVG 1.1//EN"
 "http://www.w3.org/Graphics/SVG/1.1/DTD/svg11.dtd">
<!-- Generated by graphviz version 2.36.0 (20140111.2315)
 -->
<!-- Title: models_diagram Pages: 1 -->
<svg width="1181pt" height="462pt"
 viewBox="0.00 0.00 1181.00 462.00" xmlns="http://www.w3.org/2000/svg" xmlns:xlink="http://www.w3.org/1999/xlink">
<g id="graph0" class="graph" transform="scale(1 1) rotate(0) translate(4 458)">
<title>models_diagram</title>
<polygon fill="white" stroke="none" points="-4,4 -4,-458 1177,-458 1177,4 -4,4"/>
<!-- _diagram_info -->
<g id="node1" class="node"><title>_diagram_info</title>
<text text-anchor="start" x="282" y="-417.6" font-family="Times,serif" font-size="13.00">Models diagram</text>
<text text-anchor="start" x="282" y="-403.6" font-family="Times,serif" font-size="13.00">Date: Mar 09 2015 &#45; 11:48</text>
<text text-anchor="start" x="282" y="-389.6" font-family="Times,serif" font-size="13.00">Migration version: 20150307134722</text>
<text text-anchor="start" x="282" y="-375.6" font-family="Times,serif" font-size="13.00">Generated by RailRoady 1.3.0</text>
<text text-anchor="start" x="282" y="-361.6" font-family="Times,serif" font-size="13.00">http://railroady.prestonlee.com</text>
</g>
<!-- Timing -->
<g id="node2" class="node"><title>Timing</title>
<path fill="none" stroke="black" d="M160.5,-0.5C160.5,-0.5 267.5,-0.5 267.5,-0.5 273.5,-0.5 279.5,-6.5 279.5,-12.5 279.5,-12.5 279.5,-109.5 279.5,-109.5 279.5,-115.5 273.5,-121.5 267.5,-121.5 267.5,-121.5 160.5,-121.5 160.5,-121.5 154.5,-121.5 148.5,-115.5 148.5,-109.5 148.5,-109.5 148.5,-12.5 148.5,-12.5 148.5,-6.5 154.5,-0.5 160.5,-0.5"/>
<text text-anchor="middle" x="214" y="-106.3" font-family="Times,serif" font-size="14.00">Timing</text>
<polyline fill="none" stroke="black" points="148.5,-98.5 279.5,-98.5 "/>
<text text-anchor="start" x="156.5" y="-83.3" font-family="Times,serif" font-size="14.00">id :integer</text>
<text text-anchor="start" x="156.5" y="-68.3" font-family="Times,serif" font-size="14.00">day :string</text>
<text text-anchor="start" x="156.5" y="-53.3" font-family="Times,serif" font-size="14.00">session :string</text>
<text text-anchor="start" x="156.5" y="-38.3" font-family="Times,serif" font-size="14.00">created_at :datetime</text>
<text text-anchor="start" x="156.5" y="-23.3" font-family="Times,serif" font-size="14.00">updated_at :datetime</text>
<text text-anchor="start" x="156.5" y="-8.3" font-family="Times,serif" font-size="14.00">location_id :integer</text>
</g>
<!-- Membership -->
<g id="node3" class="node"><title>Membership</title>
<path fill="none" stroke="black" d="M11.5,-174C11.5,-174 118.5,-174 118.5,-174 124.5,-174 130.5,-180 130.5,-186 130.5,-186 130.5,-268 130.5,-268 130.5,-274 124.5,-280 118.5,-280 118.5,-280 11.5,-280 11.5,-280 5.5,-280 -0.5,-274 -0.5,-268 -0.5,-268 -0.5,-186 -0.5,-186 -0.5,-180 5.5,-174 11.5,-174"/>
<text text-anchor="middle" x="65" y="-264.8" font-family="Times,serif" font-size="14.00">Membership</text>
<polyline fill="none" stroke="black" points="-0.5,-257 130.5,-257 "/>
<text text-anchor="start" x="7.5" y="-241.8" font-family="Times,serif" font-size="14.00">id :integer</text>
<text text-anchor="start" x="7.5" y="-226.8" font-family="Times,serif" font-size="14.00">title :string</text>
<text text-anchor="start" x="7.5" y="-211.8" font-family="Times,serif" font-size="14.00">created_at :datetime</text>
<text text-anchor="start" x="7.5" y="-196.8" font-family="Times,serif" font-size="14.00">updated_at :datetime</text>
<text text-anchor="start" x="7.5" y="-181.8" font-family="Times,serif" font-size="14.00">doctor_id :integer</text>
</g>
<!-- Doctor -->
<g id="node4" class="node"><title>Doctor</title>
<path fill="none" stroke="black" d="M518.5,-332.5C518.5,-332.5 655.5,-332.5 655.5,-332.5 661.5,-332.5 667.5,-338.5 667.5,-344.5 667.5,-344.5 667.5,-441.5 667.5,-441.5 667.5,-447.5 661.5,-453.5 655.5,-453.5 655.5,-453.5 518.5,-453.5 518.5,-453.5 512.5,-453.5 506.5,-447.5 506.5,-441.5 506.5,-441.5 506.5,-344.5 506.5,-344.5 506.5,-338.5 512.5,-332.5 518.5,-332.5"/>
<text text-anchor="middle" x="587" y="-438.3" font-family="Times,serif" font-size="14.00">Doctor</text>
<polyline fill="none" stroke="black" points="506.5,-430.5 667.5,-430.5 "/>
<text text-anchor="start" x="514.5" y="-415.3" font-family="Times,serif" font-size="14.00">id :integer</text>
<text text-anchor="start" x="514.5" y="-400.3" font-family="Times,serif" font-size="14.00">name :string</text>
<text text-anchor="start" x="514.5" y="-385.3" font-family="Times,serif" font-size="14.00">profile_image_path :string</text>
<text text-anchor="start" x="514.5" y="-370.3" font-family="Times,serif" font-size="14.00">description :string</text>
<text text-anchor="start" x="514.5" y="-355.3" font-family="Times,serif" font-size="14.00">created_at :datetime</text>
<text text-anchor="start" x="514.5" y="-340.3" font-family="Times,serif" font-size="14.00">updated_at :datetime</text>
</g>
<!-- Doctor&#45;&gt;Membership -->
<g id="edge7" class="edge"><title>Doctor&#45;&gt;Membership</title>
<path fill="none" stroke="#a540c8" d="M498.933,-333.081C497.956,-332.708 496.978,-332.348 496,-332 345.749,-278.562 284.492,-361.293 139,-296 132.904,-293.264 126.976,-289.825 121.301,-285.954"/>
<ellipse fill="none" stroke="#a540c8" cx="502.707" cy="-334.634" rx="4.00002" ry="4.00002"/>
<polygon fill="#a540c8" stroke="#a540c8" points="121.247,-285.915 115.839,-276.376 117.214,-282.961 113.18,-280.006 113.18,-280.006 113.18,-280.006 117.214,-282.961 110.521,-283.637 121.247,-285.915 121.247,-285.915"/>
</g>
<!-- Location -->
<g id="node5" class="node"><title>Location</title>
<path fill="none" stroke="black" d="M160.5,-159C160.5,-159 267.5,-159 267.5,-159 273.5,-159 279.5,-165 279.5,-171 279.5,-171 279.5,-283 279.5,-283 279.5,-289 273.5,-295 267.5,-295 267.5,-295 160.5,-295 160.5,-295 154.5,-295 148.5,-289 148.5,-283 148.5,-283 148.5,-171 148.5,-171 148.5,-165 154.5,-159 160.5,-159"/>
<text text-anchor="middle" x="214" y="-279.8" font-family="Times,serif" font-size="14.00">Location</text>
<polyline fill="none" stroke="black" points="148.5,-272 279.5,-272 "/>
<text text-anchor="start" x="156.5" y="-256.8" font-family="Times,serif" font-size="14.00">id :integer</text>
<text text-anchor="start" x="156.5" y="-241.8" font-family="Times,serif" font-size="14.00">name :string</text>
<text text-anchor="start" x="156.5" y="-226.8" font-family="Times,serif" font-size="14.00">address :string</text>
<text text-anchor="start" x="156.5" y="-211.8" font-family="Times,serif" font-size="14.00">fee :string</text>
<text text-anchor="start" x="156.5" y="-196.8" font-family="Times,serif" font-size="14.00">created_at :datetime</text>
<text text-anchor="start" x="156.5" y="-181.8" font-family="Times,serif" font-size="14.00">updated_at :datetime</text>
<text text-anchor="start" x="156.5" y="-166.8" font-family="Times,serif" font-size="14.00">doctor_id :integer</text>
</g>
<!-- Doctor&#45;&gt;Location -->
<g id="edge1" class="edge"><title>Doctor&#45;&gt;Location</title>
<path fill="none" stroke="#bee9b9" d="M498.896,-333.179C497.93,-332.776 496.965,-332.382 496,-332 411.671,-298.597 374.666,-334.849 288.683,-295.745"/>
<ellipse fill="none" stroke="#bee9b9" cx="502.633" cy="-334.844" rx="4.00002" ry="4.00002"/>
<polygon fill="#bee9b9" stroke="#bee9b9" points="288.676,-295.742 281.581,-287.38 284.162,-293.593 279.647,-291.443 279.647,-291.443 279.647,-291.443 284.162,-293.593 277.713,-295.507 288.676,-295.742 288.676,-295.742"/>
</g>
<!-- Experience -->
<g id="node6" class="node"><title>Experience</title>
<path fill="none" stroke="black" d="M309.5,-166.5C309.5,-166.5 416.5,-166.5 416.5,-166.5 422.5,-166.5 428.5,-172.5 428.5,-178.5 428.5,-178.5 428.5,-275.5 428.5,-275.5 428.5,-281.5 422.5,-287.5 416.5,-287.5 416.5,-287.5 309.5,-287.5 309.5,-287.5 303.5,-287.5 297.5,-281.5 297.5,-275.5 297.5,-275.5 297.5,-178.5 297.5,-178.5 297.5,-172.5 303.5,-166.5 309.5,-166.5"/>
<text text-anchor="middle" x="363" y="-272.3" font-family="Times,serif" font-size="14.00">Experience</text>
<polyline fill="none" stroke="black" points="297.5,-264.5 428.5,-264.5 "/>
<text text-anchor="start" x="305.5" y="-249.3" font-family="Times,serif" font-size="14.00">id :integer</text>
<text text-anchor="start" x="305.5" y="-234.3" font-family="Times,serif" font-size="14.00">period :string</text>
<text text-anchor="start" x="305.5" y="-219.3" font-family="Times,serif" font-size="14.00">detail :string</text>
<text text-anchor="start" x="305.5" y="-204.3" font-family="Times,serif" font-size="14.00">created_at :datetime</text>
<text text-anchor="start" x="305.5" y="-189.3" font-family="Times,serif" font-size="14.00">updated_at :datetime</text>
<text text-anchor="start" x="305.5" y="-174.3" font-family="Times,serif" font-size="14.00">doctor_id :integer</text>
</g>
<!-- Doctor&#45;&gt;Experience -->
<g id="edge5" class="edge"><title>Doctor&#45;&gt;Experience</title>
<path fill="none" stroke="#7868fe" d="M499.473,-334.226C498.309,-333.479 497.151,-332.736 496,-332 470.444,-315.648 462.226,-314.264 438,-296 437.123,-295.339 436.244,-294.669 435.364,-293.992"/>
<ellipse fill="none" stroke="#7868fe" cx="502.836" cy="-336.393" rx="4.00002" ry="4.00002"/>
<polygon fill="#7868fe" stroke="#7868fe" points="435.271,-293.919 430.213,-284.189 431.347,-290.819 427.424,-287.72 427.424,-287.72 427.424,-287.72 431.347,-290.819 424.634,-291.251 435.271,-293.919 435.271,-293.919"/>
</g>
<!-- Award -->
<g id="node7" class="node"><title>Award</title>
<path fill="none" stroke="black" d="M458.5,-166.5C458.5,-166.5 565.5,-166.5 565.5,-166.5 571.5,-166.5 577.5,-172.5 577.5,-178.5 577.5,-178.5 577.5,-275.5 577.5,-275.5 577.5,-281.5 571.5,-287.5 565.5,-287.5 565.5,-287.5 458.5,-287.5 458.5,-287.5 452.5,-287.5 446.5,-281.5 446.5,-275.5 446.5,-275.5 446.5,-178.5 446.5,-178.5 446.5,-172.5 452.5,-166.5 458.5,-166.5"/>
<text text-anchor="middle" x="512" y="-272.3" font-family="Times,serif" font-size="14.00">Award</text>
<polyline fill="none" stroke="black" points="446.5,-264.5 577.5,-264.5 "/>
<text text-anchor="start" x="454.5" y="-249.3" font-family="Times,serif" font-size="14.00">id :integer</text>
<text text-anchor="start" x="454.5" y="-234.3" font-family="Times,serif" font-size="14.00">desc :string</text>
<text text-anchor="start" x="454.5" y="-219.3" font-family="Times,serif" font-size="14.00">year :string</text>
<text text-anchor="start" x="454.5" y="-204.3" font-family="Times,serif" font-size="14.00">created_at :datetime</text>
<text text-anchor="start" x="454.5" y="-189.3" font-family="Times,serif" font-size="14.00">updated_at :datetime</text>
<text text-anchor="start" x="454.5" y="-174.3" font-family="Times,serif" font-size="14.00">doctor_id :integer</text>
</g>
<!-- Doctor&#45;&gt;Award -->
<g id="edge6" class="edge"><title>Doctor&#45;&gt;Award</title>
<path fill="none" stroke="#a3c0c1" d="M556.241,-324.74C552.022,-315.516 547.686,-306.034 543.456,-296.783"/>
<ellipse fill="none" stroke="#a3c0c1" cx="558.048" cy="-328.691" rx="4.00002" ry="4.00002"/>
<polygon fill="#a3c0c1" stroke="#a3c0c1" points="543.428,-296.721 543.361,-285.756 541.348,-292.174 539.269,-287.627 539.269,-287.627 539.269,-287.627 541.348,-292.174 535.176,-289.499 543.428,-296.721 543.428,-296.721"/>
</g>
<!-- Registration -->
<g id="node8" class="node"><title>Registration</title>
<path fill="none" stroke="black" d="M607.5,-166.5C607.5,-166.5 714.5,-166.5 714.5,-166.5 720.5,-166.5 726.5,-172.5 726.5,-178.5 726.5,-178.5 726.5,-275.5 726.5,-275.5 726.5,-281.5 720.5,-287.5 714.5,-287.5 714.5,-287.5 607.5,-287.5 607.5,-287.5 601.5,-287.5 595.5,-281.5 595.5,-275.5 595.5,-275.5 595.5,-178.5 595.5,-178.5 595.5,-172.5 601.5,-166.5 607.5,-166.5"/>
<text text-anchor="middle" x="661" y="-272.3" font-family="Times,serif" font-size="14.00">Registration</text>
<polyline fill="none" stroke="black" points="595.5,-264.5 726.5,-264.5 "/>
<text text-anchor="start" x="603.5" y="-249.3" font-family="Times,serif" font-size="14.00">id :integer</text>
<text text-anchor="start" x="603.5" y="-234.3" font-family="Times,serif" font-size="14.00">number :string</text>
<text text-anchor="start" x="603.5" y="-219.3" font-family="Times,serif" font-size="14.00">detail :string</text>
<text text-anchor="start" x="603.5" y="-204.3" font-family="Times,serif" font-size="14.00">created_at :datetime</text>
<text text-anchor="start" x="603.5" y="-189.3" font-family="Times,serif" font-size="14.00">updated_at :datetime</text>
<text text-anchor="start" x="603.5" y="-174.3" font-family="Times,serif" font-size="14.00">doctor_id :integer</text>
</g>
<!-- Doctor&#45;&gt;Registration -->
<g id="edge8" class="edge"><title>Doctor&#45;&gt;Registration</title>
<path fill="none" stroke="#a2093c" d="M617.349,-324.74C621.511,-315.516 625.789,-306.034 629.964,-296.783"/>
<ellipse fill="none" stroke="#a2093c" cx="615.57" cy="-328.682" rx="4.00002" ry="4.00002"/>
<polygon fill="#a2093c" stroke="#a2093c" points="629.982,-296.742 638.197,-289.478 632.039,-292.185 634.095,-287.627 634.095,-287.627 634.095,-287.627 632.039,-292.185 629.993,-285.776 629.982,-296.742 629.982,-296.742"/>
</g>
<!-- Service -->
<g id="node9" class="node"><title>Service</title>
<path fill="none" stroke="black" d="M756.5,-174C756.5,-174 863.5,-174 863.5,-174 869.5,-174 875.5,-180 875.5,-186 875.5,-186 875.5,-268 875.5,-268 875.5,-274 869.5,-280 863.5,-280 863.5,-280 756.5,-280 756.5,-280 750.5,-280 744.5,-274 744.5,-268 744.5,-268 744.5,-186 744.5,-186 744.5,-180 750.5,-174 756.5,-174"/>
<text text-anchor="middle" x="810" y="-264.8" font-family="Times,serif" font-size="14.00">Service</text>
<polyline fill="none" stroke="black" points="744.5,-257 875.5,-257 "/>
<text text-anchor="start" x="752.5" y="-241.8" font-family="Times,serif" font-size="14.00">id :integer</text>
<text text-anchor="start" x="752.5" y="-226.8" font-family="Times,serif" font-size="14.00">desc :string</text>
<text text-anchor="start" x="752.5" y="-211.8" font-family="Times,serif" font-size="14.00">created_at :datetime</text>
<text text-anchor="start" x="752.5" y="-196.8" font-family="Times,serif" font-size="14.00">updated_at :datetime</text>
<text text-anchor="start" x="752.5" y="-181.8" font-family="Times,serif" font-size="14.00">doctor_id :integer</text>
</g>
<!-- Doctor&#45;&gt;Service -->
<g id="edge2" class="edge"><title>Doctor&#45;&gt;Service</title>
<path fill="none" stroke="#e87cd8" d="M674.569,-338.521C694.846,-325.235 716.029,-310.601 735,-296 738.804,-293.072 742.65,-289.995 746.486,-286.834"/>
<ellipse fill="none" stroke="#e87cd8" cx="671.084" cy="-340.791" rx="4.00002" ry="4.00002"/>
<polygon fill="#e87cd8" stroke="#e87cd8" points="746.671,-286.679 757.223,-283.694 750.5,-283.463 754.329,-280.248 754.329,-280.248 754.329,-280.248 750.5,-283.463 751.435,-276.802 746.671,-286.679 746.671,-286.679"/>
</g>
<!-- Education -->
<g id="node10" class="node"><title>Education</title>
<path fill="none" stroke="black" d="M905.5,-166.5C905.5,-166.5 1012.5,-166.5 1012.5,-166.5 1018.5,-166.5 1024.5,-172.5 1024.5,-178.5 1024.5,-178.5 1024.5,-275.5 1024.5,-275.5 1024.5,-281.5 1018.5,-287.5 1012.5,-287.5 1012.5,-287.5 905.5,-287.5 905.5,-287.5 899.5,-287.5 893.5,-281.5 893.5,-275.5 893.5,-275.5 893.5,-178.5 893.5,-178.5 893.5,-172.5 899.5,-166.5 905.5,-166.5"/>
<text text-anchor="middle" x="959" y="-272.3" font-family="Times,serif" font-size="14.00">Education</text>
<polyline fill="none" stroke="black" points="893.5,-264.5 1024.5,-264.5 "/>
<text text-anchor="start" x="901.5" y="-249.3" font-family="Times,serif" font-size="14.00">id :integer</text>
<text text-anchor="start" x="901.5" y="-234.3" font-family="Times,serif" font-size="14.00">degree :string</text>
<text text-anchor="start" x="901.5" y="-219.3" font-family="Times,serif" font-size="14.00">college :string</text>
<text text-anchor="start" x="901.5" y="-204.3" font-family="Times,serif" font-size="14.00">created_at :datetime</text>
<text text-anchor="start" x="901.5" y="-189.3" font-family="Times,serif" font-size="14.00">updated_at :datetime</text>
<text text-anchor="start" x="901.5" y="-174.3" font-family="Times,serif" font-size="14.00">doctor_id :integer</text>
</g>
<!-- Doctor&#45;&gt;Education -->
<g id="edge4" class="edge"><title>Doctor&#45;&gt;Education</title>
<path fill="none" stroke="#55f19e" d="M675.856,-373.737C737.119,-358.701 818.913,-333.662 884,-296 885.517,-295.122 887.029,-294.21 888.534,-293.267"/>
<ellipse fill="none" stroke="#55f19e" cx="671.62" cy="-374.761" rx="4.00001" ry="4.00001"/>
<polygon fill="#55f19e" stroke="#55f19e" points="888.762,-293.115 899.576,-291.3 892.919,-290.337 897.076,-287.558 897.076,-287.558 897.076,-287.558 892.919,-290.337 894.575,-283.817 888.762,-293.115 888.762,-293.115"/>
</g>
<!-- Specialization -->
<g id="node11" class="node"><title>Specialization</title>
<path fill="none" stroke="black" d="M1054.5,-174C1054.5,-174 1161.5,-174 1161.5,-174 1167.5,-174 1173.5,-180 1173.5,-186 1173.5,-186 1173.5,-268 1173.5,-268 1173.5,-274 1167.5,-280 1161.5,-280 1161.5,-280 1054.5,-280 1054.5,-280 1048.5,-280 1042.5,-274 1042.5,-268 1042.5,-268 1042.5,-186 1042.5,-186 1042.5,-180 1048.5,-174 1054.5,-174"/>
<text text-anchor="middle" x="1108" y="-264.8" font-family="Times,serif" font-size="14.00">Specialization</text>
<polyline fill="none" stroke="black" points="1042.5,-257 1173.5,-257 "/>
<text text-anchor="start" x="1050.5" y="-241.8" font-family="Times,serif" font-size="14.00">id :integer</text>
<text text-anchor="start" x="1050.5" y="-226.8" font-family="Times,serif" font-size="14.00">desc :string</text>
<text text-anchor="start" x="1050.5" y="-211.8" font-family="Times,serif" font-size="14.00">created_at :datetime</text>
<text text-anchor="start" x="1050.5" y="-196.8" font-family="Times,serif" font-size="14.00">updated_at :datetime</text>
<text text-anchor="start" x="1050.5" y="-181.8" font-family="Times,serif" font-size="14.00">doctor_id :integer</text>
</g>
<!-- Doctor&#45;&gt;Specialization -->
<g id="edge3" class="edge"><title>Doctor&#45;&gt;Specialization</title>
<path fill="none" stroke="#c0d797" d="M675.761,-386.5C769.185,-377.687 918.317,-354.869 1033,-296 1038.54,-293.156 1043.99,-289.796 1049.25,-286.117"/>
<ellipse fill="none" stroke="#c0d797" cx="671.72" cy="-386.87" rx="4" ry="4"/>
<polygon fill="#c0d797" stroke="#c0d797" points="1049.34,-286.055 1060.05,-283.72 1053.36,-283.079 1057.37,-280.104 1057.37,-280.104 1057.37,-280.104 1053.36,-283.079 1054.7,-276.487 1049.34,-286.055 1049.34,-286.055"/>
</g>
<!-- Location&#45;&gt;Timing -->
<g id="edge9" class="edge"><title>Location&#45;&gt;Timing</title>
<path fill="none" stroke="#e14dfe" d="M214,-150.699C214,-144.472 214,-138.193 214,-132.007"/>
<ellipse fill="none" stroke="#e14dfe" cx="214" cy="-154.822" rx="4" ry="4"/>
<polygon fill="#e14dfe" stroke="#e14dfe" points="214,-131.711 218.5,-121.711 214,-126.711 214,-121.711 214,-121.711 214,-121.711 214,-126.711 209.5,-121.711 214,-131.711 214,-131.711"/>
</g>
</g>
</svg>
