<?xml version="1.0" encoding="UTF-8" standalone="no"?>
<!DOCTYPE svg PUBLIC "-//W3C//DTD SVG 1.1//EN"
 "http://www.w3.org/Graphics/SVG/1.1/DTD/svg11.dtd">
<!-- Generated by graphviz version 2.36.0 (20140111.2315)
 -->
<!-- Title: models_diagram Pages: 1 -->
<svg width="892pt" height="230pt"
 viewBox="0.00 0.00 892.00 230.00" xmlns="http://www.w3.org/2000/svg" xmlns:xlink="http://www.w3.org/1999/xlink">
<g id="graph0" class="graph" transform="scale(1 1) rotate(0) translate(4 226)">
<title>models_diagram</title>
<polygon fill="white" stroke="none" points="-4,4 -4,-226 888,-226 888,4 -4,4"/>
<!-- _diagram_info -->
<g id="node1" class="node"><title>_diagram_info</title>
<text text-anchor="start" x="177" y="-207.6" font-family="Times,serif" font-size="13.00">Models diagram</text>
<text text-anchor="start" x="177" y="-193.6" font-family="Times,serif" font-size="13.00">Date: Mar 09 2015 &#45; 11:48</text>
<text text-anchor="start" x="177" y="-179.6" font-family="Times,serif" font-size="13.00">Migration version: 20150307134722</text>
<text text-anchor="start" x="177" y="-165.6" font-family="Times,serif" font-size="13.00">Generated by RailRoady 1.3.0</text>
<text text-anchor="start" x="177" y="-151.6" font-family="Times,serif" font-size="13.00">http://railroady.prestonlee.com</text>
</g>
<!-- Timing -->
<g id="node2" class="node"><title>Timing</title>
<ellipse fill="none" stroke="black" cx="171" cy="-18" rx="37.0701" ry="18"/>
<text text-anchor="middle" x="171" y="-14.3" font-family="Times,serif" font-size="14.00">Timing</text>
</g>
<!-- Membership -->
<g id="node3" class="node"><title>Membership</title>
<ellipse fill="none" stroke="black" cx="55" cy="-90" rx="55.3436" ry="18"/>
<text text-anchor="middle" x="55" y="-86.3" font-family="Times,serif" font-size="14.00">Membership</text>
</g>
<!-- Doctor -->
<g id="node4" class="node"><title>Doctor</title>
<ellipse fill="none" stroke="black" cx="436" cy="-183" rx="35.1455" ry="18"/>
<text text-anchor="middle" x="436" y="-179.3" font-family="Times,serif" font-size="14.00">Doctor</text>
</g>
<!-- Doctor&#45;&gt;Membership -->
<g id="edge7" class="edge"><title>Doctor&#45;&gt;Membership</title>
<path fill="none" stroke="#b194e3" d="M415.518,-160.468C408.359,-154.17 399.877,-147.929 391,-144 279.893,-94.8265 239.225,-131.417 120,-108 115.243,-107.066 110.317,-105.987 105.403,-104.834"/>
<ellipse fill="none" stroke="#b194e3" cx="418.763" cy="-163.481" rx="4.00002" ry="4.00002"/>
<polygon fill="#b194e3" stroke="#b194e3" points="105.104,-104.762 96.457,-98.0183 100.247,-103.576 95.3897,-102.39 95.3897,-102.39 95.3897,-102.39 100.247,-103.576 94.3224,-106.761 105.104,-104.762 105.104,-104.762"/>
</g>
<!-- Location -->
<g id="node5" class="node"><title>Location</title>
<ellipse fill="none" stroke="black" cx="171" cy="-90" rx="42.3701" ry="18"/>
<text text-anchor="middle" x="171" y="-86.3" font-family="Times,serif" font-size="14.00">Location</text>
</g>
<!-- Doctor&#45;&gt;Location -->
<g id="edge1" class="edge"><title>Doctor&#45;&gt;Location</title>
<path fill="none" stroke="#7c9382" d="M415.328,-160.874C408.158,-154.601 399.718,-148.271 391,-144 322.036,-110.212 296.099,-128.174 222,-108 218.803,-107.13 215.512,-106.174 212.215,-105.173"/>
<ellipse fill="none" stroke="#7c9382" cx="418.579" cy="-163.856" rx="4.00002" ry="4.00002"/>
<polygon fill="#7c9382" stroke="#7c9382" points="211.927,-105.082 203.743,-97.7835 207.159,-103.579 202.39,-102.075 202.39,-102.075 202.39,-102.075 207.159,-103.579 201.037,-106.367 211.927,-105.082 211.927,-105.082"/>
</g>
<!-- Experience -->
<g id="node6" class="node"><title>Experience</title>
<ellipse fill="none" stroke="black" cx="281" cy="-90" rx="50.0684" ry="18"/>
<text text-anchor="middle" x="281" y="-86.3" font-family="Times,serif" font-size="14.00">Experience</text>
</g>
<!-- Doctor&#45;&gt;Experience -->
<g id="edge5" class="edge"><title>Doctor&#45;&gt;Experience</title>
<path fill="none" stroke="#af8888" d="M413.948,-161.471C406.904,-155.447 398.883,-149.11 391,-144 369.559,-130.101 343.921,-117.541 322.793,-108.139"/>
<ellipse fill="none" stroke="#af8888" cx="417.103" cy="-164.236" rx="4.00002" ry="4.00002"/>
<polygon fill="#af8888" stroke="#af8888" points="322.597,-108.054 315.236,-99.9256 318.015,-106.051 313.434,-104.049 313.434,-104.049 313.434,-104.049 318.015,-106.051 311.632,-108.172 322.597,-108.054 322.597,-108.054"/>
</g>
<!-- Award -->
<g id="node7" class="node"><title>Award</title>
<ellipse fill="none" stroke="black" cx="383" cy="-90" rx="34.1708" ry="18"/>
<text text-anchor="middle" x="383" y="-86.3" font-family="Times,serif" font-size="14.00">Award</text>
</g>
<!-- Doctor&#45;&gt;Award -->
<g id="edge6" class="edge"><title>Doctor&#45;&gt;Award</title>
<path fill="none" stroke="#0d1285" d="M422.23,-158.357C414.761,-145.533 405.523,-129.671 397.887,-116.561"/>
<ellipse fill="none" stroke="#0d1285" cx="424.266" cy="-161.853" rx="4.00002" ry="4.00002"/>
<polygon fill="#0d1285" stroke="#0d1285" points="397.692,-116.226 396.548,-105.32 395.176,-111.906 392.659,-107.585 392.659,-107.585 392.659,-107.585 395.176,-111.906 388.771,-109.85 397.692,-116.226 397.692,-116.226"/>
</g>
<!-- Registration -->
<g id="node8" class="node"><title>Registration</title>
<ellipse fill="none" stroke="black" cx="489" cy="-90" rx="53.4184" ry="18"/>
<text text-anchor="middle" x="489" y="-86.3" font-family="Times,serif" font-size="14.00">Registration</text>
</g>
<!-- Doctor&#45;&gt;Registration -->
<g id="edge8" class="edge"><title>Doctor&#45;&gt;Registration</title>
<path fill="none" stroke="#82b545" d="M449.993,-157.974C457.383,-145.286 466.456,-129.707 473.992,-116.769"/>
<ellipse fill="none" stroke="#82b545" cx="447.734" cy="-161.853" rx="4.00002" ry="4.00002"/>
<polygon fill="#82b545" stroke="#82b545" points="474.128,-116.534 483.05,-110.158 476.645,-112.214 479.161,-107.893 479.161,-107.893 479.161,-107.893 476.645,-112.214 475.273,-105.628 474.128,-116.534 474.128,-116.534"/>
</g>
<!-- Service -->
<g id="node9" class="node"><title>Service</title>
<ellipse fill="none" stroke="black" cx="598" cy="-90" rx="37.0701" ry="18"/>
<text text-anchor="middle" x="598" y="-86.3" font-family="Times,serif" font-size="14.00">Service</text>
</g>
<!-- Doctor&#45;&gt;Service -->
<g id="edge2" class="edge"><title>Doctor&#45;&gt;Service</title>
<path fill="none" stroke="#590f4f" d="M466.073,-165.107C494.423,-149.182 536.779,-125.39 565.804,-109.085"/>
<ellipse fill="none" stroke="#590f4f" cx="462.355" cy="-167.196" rx="4.00002" ry="4.00002"/>
<polygon fill="#590f4f" stroke="#590f4f" points="566.006,-108.972 576.929,-107.998 570.365,-106.523 574.725,-104.074 574.725,-104.074 574.725,-104.074 570.365,-106.523 572.521,-100.151 566.006,-108.972 566.006,-108.972"/>
</g>
<!-- Education -->
<g id="node10" class="node"><title>Education</title>
<ellipse fill="none" stroke="black" cx="699" cy="-90" rx="46.2191" ry="18"/>
<text text-anchor="middle" x="699" y="-86.3" font-family="Times,serif" font-size="14.00">Education</text>
</g>
<!-- Doctor&#45;&gt;Education -->
<g id="edge4" class="edge"><title>Doctor&#45;&gt;Education</title>
<path fill="none" stroke="#2864a1" d="M471.98,-169.551C520.02,-152.928 604.994,-123.527 656.246,-105.793"/>
<ellipse fill="none" stroke="#2864a1" cx="467.926" cy="-170.953" rx="4.00001" ry="4.00001"/>
<polygon fill="#2864a1" stroke="#2864a1" points="656.266,-105.787 667.187,-106.769 660.991,-104.152 665.716,-102.517 665.716,-102.517 665.716,-102.517 660.991,-104.152 664.244,-98.2639 656.266,-105.787 656.266,-105.787"/>
</g>
<!-- Specialization -->
<g id="node11" class="node"><title>Specialization</title>
<ellipse fill="none" stroke="black" cx="824" cy="-90" rx="60.1672" ry="18"/>
<text text-anchor="middle" x="824" y="-86.3" font-family="Times,serif" font-size="14.00">Specialization</text>
</g>
<!-- Doctor&#45;&gt;Specialization -->
<g id="edge3" class="edge"><title>Doctor&#45;&gt;Specialization</title>
<path fill="none" stroke="#b648f5" d="M475.725,-172.885C535.945,-159.038 653.929,-131.794 754,-108 758.893,-106.836 763.977,-105.619 769.07,-104.393"/>
<ellipse fill="none" stroke="#b648f5" cx="471.517" cy="-173.852" rx="4.00001" ry="4.00001"/>
<polygon fill="#b648f5" stroke="#b648f5" points="769.108,-104.384 779.885,-106.412 773.969,-103.211 778.829,-102.038 778.829,-102.038 778.829,-102.038 773.969,-103.211 777.773,-97.6632 769.108,-104.384 769.108,-104.384"/>
</g>
<!-- Location&#45;&gt;Timing -->
<g id="edge9" class="edge"><title>Location&#45;&gt;Timing</title>
<path fill="none" stroke="#312a64" d="M171,-63.6398C171,-58.0629 171,-52.1319 171,-46.4761"/>
<ellipse fill="none" stroke="#312a64" cx="171" cy="-67.6966" rx="4" ry="4"/>
<polygon fill="#312a64" stroke="#312a64" points="171,-46.1043 175.5,-36.1043 171,-41.1043 171,-36.1043 171,-36.1043 171,-36.1043 171,-41.1043 166.5,-36.1044 171,-46.1043 171,-46.1043"/>
</g>
</g>
</svg>
